<svg width="172" height="61" viewBox="0 0 172 61" fill="none" xmlns="http://www.w3.org/2000/svg">
<g clip-path="url(#clip0_288_31632)">
<path d="M18.1035 13.4183L22.0977 1.19126L29.5697 11.4631L25.5779 23.6902L18.1035 13.4183Z" fill="#004E9A"/>
<path d="M18.104 13.4183L5.22852 13.4306L12.6906 23.6901H25.5784L18.104 13.4183Z" fill="#187BC0"/>
<path d="M30.5144 8.46656V0C28.5739 0.00982484 26.6505 0.208778 24.7715 0.582122L30.5144 8.4641V8.46656Z" fill="#1CA6DF"/>
<path d="M9.53019 23.6902L1.46796 21.0718C0.877678 22.9214 0.471861 24.8102 0.248047 26.7088L9.53019 23.6902Z" fill="#187BC0"/>
<path d="M17.5459 48.326L12.5605 55.1739C14.1395 56.3062 15.812 57.2739 17.5509 58.0747L17.5459 48.326Z" fill="#DE9027"/>
<path d="M43.4844 48.326L48.4649 55.1763C50.0316 54.0268 51.4704 52.7373 52.769 51.3324L43.4844 48.326Z" fill="#D15420"/>
<path d="M51.4961 23.6902L59.5608 21.0768C58.9508 19.2321 58.1662 17.4686 57.2292 15.8008L51.4961 23.6902Z" fill="#669B41"/>
<path d="M10.4111 37.0249L0 29.4549L12.0909 25.5323L22.5019 33.1024L10.4111 37.0249Z" fill="#A96728"/>
<path d="M10.4105 37.0249L6.44336 49.2618L18.5195 45.3441L22.5014 33.1024L10.4105 37.0249Z" fill="#DE9027"/>
<path d="M30.5157 51.6296L20.0898 59.1775V46.4813L30.5157 38.9334V51.6296Z" fill="#914115"/>
<path d="M30.5156 51.6296L40.9414 59.1775V46.4985L30.5156 38.9334V51.6296Z" fill="#D15420"/>
<path d="M50.6363 37.047L54.601 49.2839L42.5101 45.3588L38.543 33.1245L50.6363 37.047Z" fill="#326820"/>
<path d="M50.6363 37.047L61.0449 29.477L48.9712 25.5593L38.543 33.1245L50.6363 37.047Z" fill="#669B41"/>
<path d="M42.9641 13.433L55.842 13.4453L48.3897 23.6902H35.502L42.9641 13.433Z" fill="#0066A6"/>
<path d="M42.9656 13.433L38.9738 1.206L31.5117 11.4631L35.5035 23.6902L42.9656 13.433Z" fill="#1CA6DF"/>
<path d="M30.5156 61C33.1301 61 35.6658 60.6709 38.0884 60.0544L30.5156 54.5623V61Z" fill="#914115"/>
<path d="M59.5612 39.9257C60.3679 37.4425 60.8402 34.9322 61 32.4416L53.4297 37.9362L59.5612 39.9257Z" fill="#326820"/>
<path d="M48.4676 5.82613C46.3524 4.291 44.1069 3.06781 41.7852 2.14673L44.68 11.0358L48.4701 5.82859L48.4676 5.82613Z" fill="#0066A6"/>
<path d="M12.5629 5.82613C10.4478 7.36126 8.5884 9.11499 6.99219 11.0357H16.3506L12.5605 5.82613H12.5629Z" fill="#004E9A"/>
<path d="M1.46875 39.9257C2.27547 42.4089 3.3724 44.7153 4.71037 46.8252L7.60028 37.9362L1.46875 39.9257Z" fill="#A96728"/>
<path d="M92.8436 21.1406L97.0395 15.7468C97.0986 15.6706 97.1084 15.5675 97.0666 15.479C97.0248 15.3931 96.9362 15.3366 96.8403 15.3366H93.9873C93.9061 15.3366 93.8299 15.3759 93.7832 15.4422L89.934 20.7427V15.5896C89.934 15.4496 89.8209 15.3366 89.6807 15.3366H87.3393C87.1991 15.3366 87.0859 15.4496 87.0859 15.5896V27.2836C87.0859 27.4236 87.1991 27.5366 87.3393 27.5366H89.6807C89.8209 27.5366 89.934 27.4236 89.934 27.2836V21.4869L96.1492 29.7766C96.1984 29.8331 96.2672 29.8651 96.341 29.8651H99.1375C99.2383 29.8651 99.3269 29.8061 99.3687 29.7152C99.4105 29.6244 99.3933 29.5187 99.3269 29.4451L92.8412 21.1381L92.8436 21.1406Z" fill="#464646"/>
<path d="M171.974 27.1755L166.101 15.1794C166.059 15.0934 165.97 15.0394 165.875 15.0394H165.535C165.439 15.0394 165.351 15.0934 165.309 15.1794L159.436 27.1755C159.399 27.2541 159.401 27.3475 159.448 27.4211C159.495 27.4948 159.576 27.539 159.662 27.539H162.173C162.271 27.539 162.362 27.4825 162.404 27.3917L163.336 25.3702H168.096L169.047 27.3941C169.089 27.4825 169.178 27.539 169.276 27.539H171.75C171.836 27.539 171.918 27.4948 171.964 27.4211C172.011 27.3475 172.016 27.2541 171.977 27.1755H171.974ZM164.266 23.1498L165.705 19.9911L167.161 23.1498H164.266Z" fill="#464646"/>
<path d="M106.743 25.186H101.693V15.592C101.693 15.452 101.58 15.339 101.442 15.339H99.101C98.9608 15.339 98.8477 15.452 98.8477 15.592V27.286C98.8477 27.426 98.9608 27.539 99.101 27.539H105.968C106.086 27.539 106.187 27.4604 106.214 27.3474L106.991 25.5004C107.008 25.4242 106.991 25.3456 106.944 25.2842C106.895 25.2228 106.824 25.1884 106.745 25.1884" fill="#464646"/>
<path d="M130.918 15.339H128.557C128.417 15.339 128.303 15.452 128.303 15.592V20.475H123.559V15.592C123.559 15.452 123.446 15.339 123.306 15.339H120.964C120.824 15.339 120.711 15.452 120.711 15.592V27.286C120.711 27.426 120.824 27.539 120.964 27.539H123.306C123.446 27.539 123.559 27.426 123.559 27.286V22.828H128.303V27.286C128.303 27.426 128.417 27.539 128.557 27.539H130.918C131.058 27.539 131.171 27.426 131.171 27.286V15.592C131.171 15.452 131.058 15.339 130.918 15.339Z" fill="#464646"/>
<path d="M156.231 15.1892H155.928C155.845 15.1892 155.763 15.231 155.717 15.3022L151.848 21.1504L147.96 15.3022C147.913 15.231 147.834 15.1892 147.748 15.1892H147.465C147.342 15.1892 147.236 15.2776 147.214 15.398L145.119 27.2418C145.107 27.3155 145.126 27.3917 145.175 27.4482C145.222 27.5047 145.293 27.539 145.367 27.539H147.652C147.775 27.539 147.881 27.4506 147.9 27.3303L148.965 21.1038L151.634 25.0509C151.727 25.1909 151.959 25.1909 152.052 25.0509L154.721 21.1038L155.786 27.3303C155.808 27.4506 155.914 27.539 156.036 27.539H158.321C158.398 27.539 158.466 27.5071 158.516 27.4482C158.565 27.3892 158.585 27.3155 158.57 27.2418L156.474 15.398C156.455 15.2776 156.349 15.1892 156.226 15.1892" fill="#464646"/>
<path d="M79.6121 27.7503C76.1171 27.7503 73.2715 24.9109 73.2715 21.4206C73.2715 17.9303 76.1147 15.091 79.6121 15.091C83.1095 15.091 85.9502 17.9303 85.9502 21.4206C85.9502 24.9109 83.107 27.7503 79.6121 27.7503ZM79.6121 17.7486C77.583 17.7486 75.9351 19.3967 75.9351 21.4206C75.9351 23.4445 77.5854 25.0927 79.6121 25.0927C81.6387 25.0927 83.289 23.4445 83.289 21.4206C83.289 19.3967 81.6387 17.7486 79.6121 17.7486Z" fill="#464646"/>
<path d="M138.634 27.7503C135.139 27.7503 132.293 24.9109 132.293 21.4206C132.293 17.9303 135.136 15.091 138.634 15.091C142.131 15.091 144.972 17.9303 144.972 21.4206C144.972 24.9109 142.128 27.7503 138.634 27.7503ZM138.634 17.7486C136.604 17.7486 134.957 19.3967 134.957 21.4206C134.957 23.4445 136.607 25.0927 138.634 25.0927C140.66 25.0927 142.31 23.4445 142.31 21.4206C142.31 19.3967 140.66 17.7486 138.634 17.7486Z" fill="#464646"/>
<path d="M119.901 27.1755L114.028 15.1794C113.986 15.0934 113.897 15.0394 113.801 15.0394H113.462C113.366 15.0394 113.277 15.0934 113.236 15.1794L107.362 27.1755C107.323 27.2541 107.328 27.3475 107.375 27.4211C107.421 27.4948 107.503 27.539 107.589 27.539H110.1C110.198 27.539 110.289 27.4825 110.331 27.3917L111.266 25.3702H116.025L116.977 27.3941C117.018 27.4825 117.107 27.539 117.205 27.539H119.68C119.766 27.539 119.847 27.4948 119.894 27.4211C119.94 27.3475 119.945 27.2541 119.906 27.1755H119.901ZM112.19 23.1498L113.632 19.9911L115.088 23.1498H112.193H112.19Z" fill="#464646"/>
<path d="M82.5005 43.9416V45.8403H73.3438V33.6476H82.257V35.5463H75.6114V38.7173H81.5068V40.5815H75.6114V43.9441H82.5005V43.9416Z" fill="#187BC0"/>
<path d="M93.2607 32.9132V45.8378H91.1677V44.6367C90.4348 45.5259 89.3526 45.9606 88.081 45.9606C85.378 45.9606 83.3711 44.0792 83.3711 41.1882C83.3711 38.2973 85.378 36.433 88.081 36.433C89.2837 36.433 90.3487 36.8334 91.0816 37.6881V32.9157H93.2607V32.9132ZM91.116 41.1882C91.116 39.4124 89.9134 38.2801 88.3417 38.2801C86.7701 38.2801 85.5674 39.4124 85.5674 41.1882C85.5674 42.9641 86.7701 44.0964 88.3417 44.0964C89.9134 44.0964 91.116 42.9641 91.116 41.1882Z" fill="#187BC0"/>
<path d="M104.545 36.5361V45.8378H102.469V44.6539C101.771 45.5062 100.674 45.9606 99.4685 45.9606C97.0778 45.9606 95.457 44.6539 95.457 41.8489V36.5361H97.6361V41.5517C97.6361 43.2416 98.4379 44.0423 99.8153 44.0423C101.333 44.0423 102.361 43.1016 102.361 41.2373V36.5337H104.54L104.545 36.5361Z" fill="#187BC0"/>
<path d="M106.148 41.1882C106.148 38.4004 108.241 36.433 111.19 36.433C113.003 36.433 114.452 37.1821 115.167 38.592L113.492 39.5671C112.934 38.678 112.098 38.2776 111.173 38.2776C109.567 38.2776 108.347 39.3927 108.347 41.1857C108.347 42.9788 109.567 44.0939 111.173 44.0939C112.098 44.0939 112.934 43.6935 113.492 42.8044L115.167 43.7795C114.452 45.1722 113.006 45.9557 111.19 45.9557C108.241 45.9557 106.148 43.9711 106.148 41.1833V41.1882Z" fill="#187BC0"/>
<path d="M124.513 40.3875V45.8403H122.454V44.708C121.93 45.5087 120.92 45.9631 119.525 45.9631C117.398 45.9631 116.055 44.7964 116.055 43.1753C116.055 41.5542 117.102 40.4047 119.926 40.4047H122.334V40.2647C122.334 38.9924 121.566 38.2432 120.014 38.2432C118.969 38.2432 117.887 38.592 117.189 39.1667L116.335 37.5825C117.329 36.8162 118.777 36.433 120.278 36.433C122.963 36.433 124.515 37.7053 124.515 40.3875H124.513ZM122.334 42.9297V41.8489H120.083C118.6 41.8489 118.199 42.4065 118.199 43.0844C118.199 43.8679 118.861 44.3739 119.978 44.3739C121.094 44.3739 121.967 43.8851 122.331 42.9272L122.334 42.9297Z" fill="#187BC0"/>
<path d="M132.244 45.3343C131.72 45.7519 130.935 45.9606 130.151 45.9606C128.109 45.9606 126.941 44.8799 126.941 42.8265V38.3488H125.406V36.6074H126.941V34.4828H129.12V36.6074H131.614V38.3488H129.12V42.7725C129.12 43.6788 129.573 44.1651 130.411 44.1651C130.864 44.1651 131.302 44.0423 131.631 43.782L132.241 45.3318L132.244 45.3343Z" fill="#187BC0"/>
<path d="M133.115 33.6968C133.115 32.9648 133.708 32.3901 134.51 32.3901C135.312 32.3901 135.904 32.9304 135.904 33.6452C135.904 34.4115 135.329 35.0035 134.51 35.0035C133.691 35.0035 133.115 34.4287 133.115 33.6968ZM133.413 36.5361H135.594V45.8378H133.413V36.5361Z" fill="#187BC0"/>
<path d="M137.141 41.1882C137.141 38.4004 139.234 36.433 142.094 36.433C144.954 36.433 147.065 38.4004 147.065 41.1882C147.065 43.976 144.989 45.9606 142.094 45.9606C139.199 45.9606 137.141 43.976 137.141 41.1882ZM144.868 41.1882C144.868 39.4124 143.683 38.2801 142.094 38.2801C140.505 38.2801 139.339 39.4124 139.339 41.1882C139.339 42.964 140.525 44.0964 142.094 44.0964C143.663 44.0964 144.868 42.964 144.868 41.1882Z" fill="#187BC0"/>
<path d="M157.842 40.5078V45.8378H155.663V40.7854C155.663 39.1299 154.844 38.3292 153.447 38.3292C151.895 38.3292 150.848 39.2699 150.848 41.1342V45.8378H148.666V36.5361H150.742V37.7372C151.458 36.8849 152.591 36.4305 153.951 36.4305C156.185 36.4305 157.842 37.7028 157.842 40.5078Z" fill="#187BC0"/>
</g>
<defs>
<clipPath id="clip0_288_31632">
<rect width="172" height="61" fill="white"/>
</clipPath>
</defs>
</svg>
